<svg width="33" height="17" viewBox="0 0 33 17" fill="none" xmlns="http://www.w3.org/2000/svg">
<mask id="path-1-outside-1_70_3" maskUnits="userSpaceOnUse" x="0" y="0" width="33" height="17" fill="black">
<rect fill="white" width="33" height="17"/>
<path fill-rule="evenodd" clip-rule="evenodd" d="M14.2339 9.8412C13.5217 12.4937 11.1005 14.4464 8.22318 14.4464C4.78621 14.4464 2 11.6601 2 8.22318C2 4.78621 4.78621 2 8.22318 2C11.0553 2 13.4455 3.89183 14.1991 6.48069H31V9.8412H30.1471L30.1471 11.9571H28.1556V10.588H25.9153V11.9571H23.9239V10.588V9.8412H14.2339ZM8.22318 11.4352C6.44922 11.4352 5.01115 9.99713 5.01115 8.22318C5.01115 6.44922 6.44922 5.01115 8.22318 5.01115C9.99713 5.01115 11.4352 6.44922 11.4352 8.22318C11.4352 9.99713 9.99713 11.4352 8.22318 11.4352Z"/>
</mask>
<path fill-rule="evenodd" clip-rule="evenodd" d="M14.2339 9.8412C13.5217 12.4937 11.1005 14.4464 8.22318 14.4464C4.78621 14.4464 2 11.6601 2 8.22318C2 4.78621 4.78621 2 8.22318 2C11.0553 2 13.4455 3.89183 14.1991 6.48069H31V9.8412H30.1471L30.1471 11.9571H28.1556V10.588H25.9153V11.9571H23.9239V10.588V9.8412H14.2339ZM8.22318 11.4352C6.44922 11.4352 5.01115 9.99713 5.01115 8.22318C5.01115 6.44922 6.44922 5.01115 8.22318 5.01115C9.99713 5.01115 11.4352 6.44922 11.4352 8.22318C11.4352 9.99713 9.99713 11.4352 8.22318 11.4352Z" fill="#54BA4E"/>
<path d="M14.2339 9.8412V7.8412H12.7001L12.3024 9.32253L14.2339 9.8412ZM14.1991 6.48069L12.2788 7.03967L12.6983 8.48069H14.1991V6.48069ZM31 6.48069H33V4.48069H31V6.48069ZM31 9.8412V11.8412H33V9.8412H31ZM30.1471 9.8412V7.8412H28.1471L28.1471 9.84121L30.1471 9.8412ZM30.1471 11.9571V13.9571H32.1471L32.1471 11.9571L30.1471 11.9571ZM28.1556 11.9571H26.1556V13.9571H28.1556V11.9571ZM28.1556 10.588H30.1556V8.58798H28.1556V10.588ZM25.9153 10.588V8.58798H23.9153V10.588H25.9153ZM25.9153 11.9571V13.9571H27.9153V11.9571H25.9153ZM23.9239 11.9571H21.9239V13.9571H23.9239V11.9571ZM23.9239 9.8412H25.9239V7.8412H23.9239V9.8412ZM12.3024 9.32253C11.8188 11.1233 10.173 12.4464 8.22318 12.4464V16.4464C12.028 16.4464 15.2246 13.8641 16.1655 10.3599L12.3024 9.32253ZM8.22318 12.4464C5.89078 12.4464 4 10.5556 4 8.22318H0C0 12.7647 3.68164 16.4464 8.22318 16.4464V12.4464ZM4 8.22318C4 5.89078 5.89078 4 8.22318 4V0C3.68164 0 0 3.68164 0 8.22318H4ZM8.22318 4C10.1422 4 11.767 5.28155 12.2788 7.03967L16.1194 5.92171C15.124 2.5021 11.9684 0 8.22318 0V4ZM31 4.48069H14.1991V8.48069H31V4.48069ZM33 9.8412V6.48069H29V9.8412H33ZM30.1471 11.8412H31V7.8412H30.1471V11.8412ZM32.1471 11.9571L32.1471 9.8412L28.1471 9.84121L28.1471 11.9571L32.1471 11.9571ZM28.1556 13.9571H30.1471V9.95708H28.1556V13.9571ZM26.1556 10.588V11.9571H30.1556V10.588H26.1556ZM25.9153 12.588H28.1556V8.58798H25.9153V12.588ZM27.9153 11.9571V10.588H23.9153V11.9571H27.9153ZM23.9239 13.9571H25.9153V9.95708H23.9239V13.9571ZM21.9239 10.588V11.9571H25.9239V10.588H21.9239ZM21.9239 9.8412V10.588H25.9239V9.8412H21.9239ZM14.2339 11.8412H23.9239V7.8412H14.2339V11.8412ZM3.01115 8.22318C3.01115 11.1017 5.34465 13.4352 8.22318 13.4352V9.4352C7.55379 9.4352 7.01115 8.89256 7.01115 8.22318H3.01115ZM8.22318 3.01115C5.34465 3.01115 3.01115 5.34465 3.01115 8.22318H7.01115C7.01115 7.55379 7.55379 7.01115 8.22318 7.01115V3.01115ZM13.4352 8.22318C13.4352 5.34465 11.1017 3.01115 8.22318 3.01115V7.01115C8.89256 7.01115 9.4352 7.55379 9.4352 8.22318H13.4352ZM8.22318 13.4352C11.1017 13.4352 13.4352 11.1017 13.4352 8.22318H9.4352C9.4352 8.89256 8.89256 9.4352 8.22318 9.4352V13.4352Z" fill="black" mask="url(#path-1-outside-1_70_3)"/>
</svg>
