<svg width="12" height="16" viewBox="0 0 12 16" fill="none" xmlns="http://www.w3.org/2000/svg">
<path d="M1.89058 0.351052L2.75139 0.0758487C3.5586 -0.181754 4.42101 0.235051 4.76661 1.04946L5.45462 2.67188C5.75382 3.37829 5.58742 4.2095 5.04342 4.7263L3.5274 6.16472C3.621 7.02553 3.9106 7.87274 4.39541 8.70635C4.85579 9.51287 5.47332 10.2188 6.21143 10.7824L8.03225 10.1744C8.72186 9.94477 9.47387 10.2096 9.89627 10.8312L10.8827 12.2792C11.3747 13.0024 11.2859 13.9992 10.6755 14.612L10.0219 15.2688C9.37067 15.9224 8.44026 16.16 7.58024 15.8912C5.54822 15.2576 3.6818 13.3768 1.97778 10.2488C0.27136 7.11593 -0.331047 4.4567 0.171359 2.27427C0.382561 1.35586 1.03617 0.623855 1.89058 0.351052Z" fill="black"/>
</svg>
