<svg width="37" height="36" viewBox="0 0 37 36" fill="none" xmlns="http://www.w3.org/2000/svg">
<path d="M6.78974 22.9699L28.2649 2L34.9602 8.44256L13.6113 30.0441L2.59832 34.863C1.73379 35.2413 0.874543 34.3217 1.31062 33.4848L6.78974 22.9699Z" fill="#54BA4E" stroke="black" stroke-width="2"/>
<path d="M24.7278 5.53708L31.2967 12.106" stroke="black" stroke-width="2"/>
<path d="M22.075 7.81093L29.0229 14.5061" stroke="black" stroke-width="2"/>
<path d="M6.78973 23.3489L8.91898 23.8599C9.5224 24.0047 9.94785 24.5444 9.94785 25.1649V25.1649C9.94785 25.9061 10.5487 26.507 11.2899 26.507H11.6082C12.4043 26.507 13.0883 27.072 13.2386 27.8538L13.6113 29.7915" stroke="black" stroke-width="2"/>
<path d="M9.56891 24.3595L24.0963 10.0848" stroke="black" stroke-width="2"/>
<path d="M12.727 26.886L27.0017 12.8639" stroke="black" stroke-width="2"/>
<path d="M4.22955 28.7349C5.22144 28.9761 7.31827 30.0197 7.77046 32.2651" stroke="black" stroke-width="2"/>
</svg>
