<svg width="15" height="16" viewBox="0 0 15 16" fill="none" xmlns="http://www.w3.org/2000/svg">
<path d="M14.7231 9.12803C14.7716 8.77168 14.7964 8.41232 14.7973 8.05248C14.7973 5.95727 14.0923 4.14578 12.7032 2.66787C11.299 1.17621 9.57404 0.419629 7.57657 0.419629C7.35369 0.419295 7.13092 0.430198 6.90908 0.452299C6.27544 0.150585 5.58529 -0.00379738 4.88743 7.09383e-05C3.54662 7.09383e-05 2.3433 0.524518 1.40915 1.51753C0.488327 2.49334 0 3.73998 0 5.1216C0 5.83691 0.129998 6.51353 0.388328 7.14029C0.349623 7.443 0.330137 7.748 0.329996 8.05334C0.329996 10.1494 1.04082 11.9626 2.43997 13.4414C3.85078 14.9305 5.57993 15.6853 7.57657 15.6853C7.78823 15.6853 8.03239 15.6681 8.32322 15.6337C8.89822 15.8771 9.49737 16 10.1115 16C11.4348 16 12.6323 15.4721 13.5757 14.4722C14.0328 13.9955 14.394 13.4302 14.6384 12.8088C14.8828 12.1875 15.0056 11.5224 14.9998 10.8518C14.9998 10.2698 14.9073 9.69202 14.7231 9.12803ZM10.4165 10.8785C10.1799 11.2456 9.80904 11.5499 9.30071 11.7941C8.79322 12.003 8.20906 12.1079 7.55073 12.1079C6.75574 12.1079 6.08742 11.9592 5.54743 11.6617C5.17911 11.4558 4.86547 11.1597 4.63411 10.7994C4.39744 10.4151 4.27744 10.0583 4.27744 9.72641C4.27744 9.51749 4.35411 9.33351 4.50577 9.17703C4.58221 9.09868 4.67342 9.03735 4.77376 8.99683C4.87409 8.95631 4.98142 8.93747 5.0891 8.94146C5.25826 8.94146 5.42743 9.00336 5.59659 9.12459C5.73159 9.26387 5.83242 9.43925 5.89992 9.64817C5.91742 9.66537 6.02742 9.86569 6.22992 10.25C6.31492 10.3712 6.46658 10.4933 6.68574 10.6154C6.88991 10.7203 7.15907 10.7727 7.49823 10.7727C7.95489 10.7727 8.33572 10.6687 8.63989 10.4598C8.90988 10.2672 9.04488 10.0239 9.04488 9.72641C9.04488 9.48224 8.96821 9.29826 8.81655 9.17703C8.65131 9.01143 8.4523 8.88601 8.23406 8.80992L7.96823 8.74544L7.5874 8.63969C7.4668 8.60165 7.34408 8.57122 7.2199 8.54855C6.64574 8.42733 6.15575 8.27 5.74826 8.07741C5.39326 7.93813 5.07243 7.69482 4.78494 7.34577C4.54911 7.0139 4.42994 6.621 4.42994 6.16791C4.42994 5.71396 4.55661 5.31332 4.81077 4.96426C5.0641 4.6152 5.42743 4.35298 5.90076 4.17931C6.37492 3.98673 6.91657 3.89216 7.5249 3.89216C7.98156 3.89216 8.41322 3.95234 8.81822 4.07528C9.20821 4.21456 9.52071 4.38049 9.75737 4.57308C9.97653 4.782 10.1549 4.99091 10.2899 5.19983C10.4082 5.47839 10.4682 5.70623 10.4682 5.8799C10.4704 5.98688 10.4512 6.09318 10.4118 6.19216C10.3724 6.29113 10.3135 6.38064 10.239 6.45507C10.1646 6.53783 10.0745 6.6039 9.97433 6.64917C9.87411 6.69443 9.76594 6.71791 9.65654 6.71815C9.48335 6.72251 9.31375 6.6668 9.17488 6.55996C9.08988 6.47312 8.98071 6.31665 8.84488 6.08967C8.73629 5.83562 8.57163 5.61128 8.36406 5.43454C8.16156 5.27807 7.84823 5.19983 7.4249 5.19983C7.00241 5.19983 6.68158 5.28753 6.46158 5.46206C6.22492 5.62025 6.10659 5.80252 6.10659 6.01144C6.10659 6.15072 6.14825 6.26592 6.23325 6.3519C6.31825 6.47484 6.42658 6.57113 6.56325 6.64077C6.64825 6.69236 6.79158 6.75426 6.99491 6.82304L7.33657 6.91417C7.51407 6.95974 7.6624 6.98897 7.78073 7.00617C8.01656 7.05861 8.42322 7.17124 8.99821 7.34663C9.33654 7.46785 9.65737 7.62433 9.96154 7.81777C10.2499 8.02583 10.4607 8.26226 10.5965 8.52276C10.7315 8.83657 10.7982 9.18563 10.7982 9.56908C10.7984 10.0348 10.6657 10.4902 10.4165 10.8785Z" fill="black"/>
</svg>
