<svg width="92" height="86" viewBox="0 0 92 86" fill="none" xmlns="http://www.w3.org/2000/svg">
<path d="M55.1238 28.5011L79.9994 19.0556L64.8908 40.1112L64.2327 41.0284L65.2226 41.5711L88.3463 54.2486L61.7326 56.0669L60.6391 56.1416L60.8136 57.2237L64.8964 82.5464L46.7206 63.6566L46 62.9077L45.2794 63.6566L27.1036 82.5464L31.1864 57.2237L31.3609 56.1416L30.2673 56.0669L3.65369 54.2486L26.7774 41.5711L27.7673 41.0284L27.1092 40.1112L12.0006 19.0556L36.8762 28.5011L37.8639 28.8762L38.1842 27.8694L46 3.2989L53.8158 27.8694L54.1361 28.8762L55.1238 28.5011Z" fill="#54BA4E" stroke="black" stroke-width="2"/>
</svg>
