<svg width="15" height="15" viewBox="0 0 15 15" fill="none" xmlns="http://www.w3.org/2000/svg">
<path d="M0.00301003 15L1.01701 11.274C0.348863 10.1286 -0.00216797 8.82599 1.00742e-05 7.5C1.00742e-05 3.35775 3.35776 0 7.50001 0C11.6423 0 15 3.35775 15 7.5C15 11.6422 11.6423 15 7.50001 15C6.17459 15.0021 4.8725 14.6514 3.72751 13.9837L0.00301003 15ZM4.79326 3.981C4.6964 3.98701 4.60176 4.01252 4.51501 4.056C4.43365 4.10207 4.35938 4.15967 4.29451 4.227C4.20451 4.31175 4.15351 4.38525 4.09876 4.4565C3.82157 4.81724 3.67247 5.26006 3.67501 5.715C3.67651 6.0825 3.77251 6.44025 3.92251 6.77475C4.22926 7.45125 4.73401 8.16749 5.40076 8.83124C5.56126 8.99099 5.71801 9.15149 5.88676 9.30074C6.7143 10.0293 7.70045 10.5548 8.76675 10.8352L9.1935 10.9005C9.33225 10.908 9.471 10.8975 9.6105 10.8907C9.82893 10.8795 10.0422 10.8203 10.2353 10.7175C10.3335 10.6669 10.4293 10.6118 10.5225 10.5525C10.5225 10.5525 10.5548 10.5315 10.6163 10.485C10.7175 10.41 10.7798 10.3567 10.8638 10.269C10.926 10.2045 10.98 10.1287 11.0213 10.0425C11.0798 9.92024 11.1383 9.68699 11.1623 9.49274C11.1803 9.34424 11.175 9.26324 11.1728 9.21299C11.1698 9.13274 11.103 9.04949 11.0303 9.01424L10.5938 8.81849C10.5938 8.81849 9.94125 8.53424 9.543 8.35275C9.50101 8.33444 9.45602 8.32402 9.41025 8.32199C9.35894 8.31672 9.30709 8.3225 9.25819 8.33893C9.20929 8.35536 9.16448 8.38206 9.12675 8.41724V8.41574C9.123 8.41574 9.07275 8.4585 8.5305 9.11549C8.49938 9.15732 8.45651 9.18892 8.40736 9.20629C8.3582 9.22365 8.30499 9.22599 8.2545 9.21299C8.20564 9.19993 8.15776 9.18338 8.11125 9.16349C8.01825 9.12449 7.986 9.10949 7.92225 9.08174L7.9185 9.08024C7.48944 8.89291 7.09217 8.63988 6.74101 8.33025C6.64651 8.24774 6.55876 8.15774 6.46876 8.07074C6.17369 7.78817 5.91654 7.4685 5.70376 7.11975L5.65951 7.0485C5.62772 7.00062 5.60203 6.94897 5.58301 6.89475C5.55451 6.7845 5.62876 6.696 5.62876 6.696C5.62876 6.696 5.81101 6.4965 5.89576 6.3885C5.96632 6.29874 6.03216 6.20536 6.09301 6.10875C6.18151 5.96625 6.20926 5.82 6.16276 5.70675C5.95276 5.19375 5.73526 4.683 5.51176 4.176C5.46751 4.0755 5.33626 4.0035 5.21701 3.98925C5.17651 3.98475 5.13601 3.98025 5.09551 3.97725C4.99479 3.97224 4.89386 3.97325 4.79326 3.98025V3.981Z" fill="black"/>
</svg>
